{
	"asset":{
		"generator":"Khronos glTF Blender I/O v4.2.69",
		"version":"2.0"
	},
	"extensionsUsed":[
		"KHR_materials_specular"
	],
	"scene":0,
	"scenes":[
		{
			"name":"Scene",
			"nodes":[
				10
			]
		}
	],
	"nodes":[
		{
			"mesh":0,
			"name":"Beard"
		},
		{
			"mesh":1,
			"name":"Body"
		},
		{
			"mesh":2,
			"name":"Bracer"
		},
		{
			"mesh":3,
			"name":"Eyes"
		},
		{
			"mesh":4,
			"name":"Hair"
		},
		{
			"mesh":5,
			"name":"Sandals"
		},
		{
			"mesh":6,
			"name":"Shield"
		},
		{
			"mesh":7,
			"name":"Shoulder"
		},
		{
			"mesh":8,
			"name":"Skirt"
		},
		{
			"mesh":9,
			"name":"Sword"
		},
		{
			"children":[
				0,
				1,
				2,
				3,
				4,
				5,
				6,
				7,
				8,
				9
			],
			"name":"Character_Main",
			"rotation":[
				0.7071068286895752,
				0,
				0,
				0.7071068286895752
			],
			"scale":[
				0.009999999776482582,
				0.009999999776482582,
				0.009999999776482582
			]
		}
	],
	"materials":[
		{
			"alphaMode":"BLEND",
			"doubleSided":true,
			"extensions":{
				"KHR_materials_specular":{
					"specularTexture":{
						"index":0
					}
				}
			},
			"name":"Beard_Mat",
			"normalTexture":{
				"index":1
			},
			"pbrMetallicRoughness":{
				"baseColorTexture":{
					"index":2
				},
				"metallicFactor":0.5,
				"roughnessFactor":0.7487671971321106
			}
		},
		{
			"doubleSided":true,
			"extensions":{
				"KHR_materials_specular":{
					"specularTexture":{
						"index":3
					}
				}
			},
			"name":"Body_Mat",
			"normalTexture":{
				"index":4
			},
			"pbrMetallicRoughness":{
				"baseColorTexture":{
					"index":5
				},
				"metallicFactor":0.5,
				"roughnessFactor":0.7487671971321106
			}
		},
		{
			"alphaMode":"BLEND",
			"doubleSided":true,
			"extensions":{
				"KHR_materials_specular":{
					"specularTexture":{
						"index":6
					}
				}
			},
			"name":"Bracer_Mat",
			"normalTexture":{
				"index":7
			},
			"pbrMetallicRoughness":{
				"baseColorTexture":{
					"index":8
				},
				"metallicFactor":0.5,
				"roughnessFactor":0.7487671971321106
			}
		},
		{
			"doubleSided":true,
			"extensions":{
				"KHR_materials_specular":{
					"specularColorFactor":[
						2.0,
						2.0,
						2.0
					]
				}
			},
			"name":"Eyes_Mat",
			"pbrMetallicRoughness":{
				"baseColorFactor":[
					0.5,
					0.5,
					0.5,
					1
				],
				"metallicFactor":0.5,
				"roughnessFactor":0.7487671971321106
			}
		},
		{
			"alphaMode":"BLEND",
			"doubleSided":true,
			"extensions":{
				"KHR_materials_specular":{
					"specularTexture":{
						"index":9
					}
				}
			},
			"name":"Hair_Mat",
			"normalTexture":{
				"index":10
			},
			"pbrMetallicRoughness":{
				"baseColorTexture":{
					"index":11
				},
				"metallicFactor":0.5,
				"roughnessFactor":0.7487671971321106
			}
		},
		{
			"alphaMode":"BLEND",
			"doubleSided":true,
			"extensions":{
				"KHR_materials_specular":{
					"specularTexture":{
						"index":12
					}
				}
			},
			"name":"Sandals_Mat",
			"normalTexture":{
				"index":13
			},
			"pbrMetallicRoughness":{
				"baseColorTexture":{
					"index":14
				},
				"metallicFactor":0.5,
				"roughnessFactor":0.7487671971321106
			}
		},
		{
			"alphaMode":"BLEND",
			"doubleSided":true,
			"extensions":{
				"KHR_materials_specular":{
					"specularTexture":{
						"index":15
					}
				}
			},
			"name":"Shield_Mat",
			"normalTexture":{
				"index":16
			},
			"pbrMetallicRoughness":{
				"baseColorTexture":{
					"index":17
				},
				"metallicFactor":0.5,
				"roughnessFactor":0.7487671971321106
			}
		},
		{
			"alphaMode":"BLEND",
			"doubleSided":true,
			"extensions":{
				"KHR_materials_specular":{
					"specularTexture":{
						"index":18
					}
				}
			},
			"name":"Shoulder_Mat",
			"normalTexture":{
				"index":19
			},
			"pbrMetallicRoughness":{
				"baseColorTexture":{
					"index":20
				},
				"metallicFactor":0.5,
				"roughnessFactor":0.7487671971321106
			}
		},
		{
			"alphaMode":"BLEND",
			"doubleSided":true,
			"extensions":{
				"KHR_materials_specular":{
					"specularTexture":{
						"index":21
					}
				}
			},
			"name":"Skirt_Mat",
			"normalTexture":{
				"index":22
			},
			"pbrMetallicRoughness":{
				"baseColorTexture":{
					"index":23
				},
				"metallicFactor":0.5,
				"roughnessFactor":0.7487671971321106
			}
		},
		{
			"doubleSided":true,
			"extensions":{
				"KHR_materials_specular":{
					"specularTexture":{
						"index":24
					}
				}
			},
			"name":"Sword_Mat",
			"normalTexture":{
				"index":25
			},
			"pbrMetallicRoughness":{
				"baseColorTexture":{
					"index":26
				},
				"metallicFactor":0.5,
				"roughnessFactor":0.7487671971321106
			}
		}
	],
	"meshes":[
		{
			"name":"Mesh.029",
			"primitives":[
				{
					"attributes":{
						"POSITION":0,
						"NORMAL":1,
						"TEXCOORD_0":2
					},
					"indices":3,
					"material":0
				}
			]
		},
		{
			"name":"Mesh.030",
			"primitives":[
				{
					"attributes":{
						"POSITION":4,
						"NORMAL":5,
						"TEXCOORD_0":6
					},
					"indices":7,
					"material":1
				}
			]
		},
		{
			"name":"Mesh.031",
			"primitives":[
				{
					"attributes":{
						"POSITION":8,
						"NORMAL":9,
						"TEXCOORD_0":10
					},
					"indices":11,
					"material":2
				}
			]
		},
		{
			"name":"Mesh.028",
			"primitives":[
				{
					"attributes":{
						"POSITION":12,
						"NORMAL":13,
						"TEXCOORD_0":14
					},
					"indices":15,
					"material":3
				}
			]
		},
		{
			"name":"Mesh.034",
			"primitives":[
				{
					"attributes":{
						"POSITION":16,
						"NORMAL":17,
						"TEXCOORD_0":18
					},
					"indices":19,
					"material":4
				}
			]
		},
		{
			"name":"Mesh.032",
			"primitives":[
				{
					"attributes":{
						"POSITION":20,
						"NORMAL":21,
						"TEXCOORD_0":22
					},
					"indices":23,
					"material":5
				}
			]
		},
		{
			"name":"Mesh.035",
			"primitives":[
				{
					"attributes":{
						"POSITION":24,
						"NORMAL":25,
						"TEXCOORD_0":26
					},
					"indices":27,
					"material":6
				}
			]
		},
		{
			"name":"Mesh.036",
			"primitives":[
				{
					"attributes":{
						"POSITION":28,
						"NORMAL":29,
						"TEXCOORD_0":30
					},
					"indices":31,
					"material":7
				}
			]
		},
		{
			"name":"Mesh.037",
			"primitives":[
				{
					"attributes":{
						"POSITION":32,
						"NORMAL":33,
						"TEXCOORD_0":34
					},
					"indices":35,
					"material":8
				}
			]
		},
		{
			"name":"Mesh.033",
			"primitives":[
				{
					"attributes":{
						"POSITION":36,
						"NORMAL":37,
						"TEXCOORD_0":38
					},
					"indices":39,
					"material":9
				}
			]
		}
	],
	"textures":[
		{
			"sampler":0,
			"source":0
		},
		{
			"sampler":0,
			"source":1
		},
		{
			"sampler":0,
			"source":2
		},
		{
			"sampler":0,
			"source":3
		},
		{
			"sampler":0,
			"source":4
		},
		{
			"sampler":0,
			"source":5
		},
		{
			"sampler":0,
			"source":6
		},
		{
			"sampler":0,
			"source":7
		},
		{
			"sampler":0,
			"source":8
		},
		{
			"sampler":0,
			"source":9
		},
		{
			"sampler":0,
			"source":10
		},
		{
			"sampler":0,
			"source":11
		},
		{
			"sampler":0,
			"source":12
		},
		{
			"sampler":0,
			"source":13
		},
		{
			"sampler":0,
			"source":14
		},
		{
			"sampler":0,
			"source":15
		},
		{
			"sampler":0,
			"source":16
		},
		{
			"sampler":0,
			"source":17
		},
		{
			"sampler":0,
			"source":18
		},
		{
			"sampler":0,
			"source":19
		},
		{
			"sampler":0,
			"source":20
		},
		{
			"sampler":0,
			"source":21
		},
		{
			"sampler":0,
			"source":22
		},
		{
			"sampler":0,
			"source":23
		},
		{
			"sampler":0,
			"source":24
		},
		{
			"sampler":0,
			"source":25
		},
		{
			"sampler":0,
			"source":26
		}
	],
	"images":[
		{
			"mimeType":"image/png",
			"name":"Beard_Spec",
			"uri":"Beard_Spec.png"
		},
		{
			"mimeType":"image/png",
			"name":"Beard_Normal",
			"uri":"Beard_Normal.png"
		},
		{
			"mimeType":"image/png",
			"name":"Beard_Color",
			"uri":"Beard_Color.png"
		},
		{
			"mimeType":"image/png",
			"name":"Body_Spec",
			"uri":"Body_Spec.png"
		},
		{
			"mimeType":"image/png",
			"name":"Body_Normal",
			"uri":"Body_Normal.png"
		},
		{
			"mimeType":"image/png",
			"name":"Body_Color",
			"uri":"Body_Color.png"
		},
		{
			"mimeType":"image/png",
			"name":"Bracer_Spec",
			"uri":"Bracer_Spec.png"
		},
		{
			"mimeType":"image/png",
			"name":"Bracer_Normal",
			"uri":"Bracer_Normal.png"
		},
		{
			"mimeType":"image/png",
			"name":"Bracer_Color",
			"uri":"Bracer_Color.png"
		},
		{
			"mimeType":"image/png",
			"name":"Hair_Spec",
			"uri":"Hair_Spec.png"
		},
		{
			"mimeType":"image/png",
			"name":"Hair_Normal",
			"uri":"Hair_Normal.png"
		},
		{
			"mimeType":"image/png",
			"name":"Hair_Color",
			"uri":"Hair_Color.png"
		},
		{
			"mimeType":"image/png",
			"name":"Sandals_Spec",
			"uri":"Sandals_Spec.png"
		},
		{
			"mimeType":"image/png",
			"name":"Sandals_Normal",
			"uri":"Sandals_Normal.png"
		},
		{
			"mimeType":"image/png",
			"name":"Sandals_Color",
			"uri":"Sandals_Color.png"
		},
		{
			"mimeType":"image/png",
			"name":"Shield_Spec",
			"uri":"Shield_Spec.png"
		},
		{
			"mimeType":"image/png",
			"name":"Shield_Normal",
			"uri":"Shield_Normal.png"
		},
		{
			"mimeType":"image/png",
			"name":"Shield_Color",
			"uri":"Shield_Color.png"
		},
		{
			"mimeType":"image/png",
			"name":"Shoulder_Spec",
			"uri":"Shoulder_Spec.png"
		},
		{
			"mimeType":"image/png",
			"name":"Shoulder_Normal",
			"uri":"Shoulder_Normal.png"
		},
		{
			"mimeType":"image/png",
			"name":"Shoulder_Color",
			"uri":"Shoulder_Color.png"
		},
		{
			"mimeType":"image/png",
			"name":"Skirt_Spec",
			"uri":"Skirt_Spec.png"
		},
		{
			"mimeType":"image/png",
			"name":"Skirt_Normal",
			"uri":"Skirt_Normal.png"
		},
		{
			"mimeType":"image/png",
			"name":"Skirt_Color",
			"uri":"Skirt_Color.png"
		},
		{
			"mimeType":"image/png",
			"name":"Sword_Spec",
			"uri":"Sword_Spec.png"
		},
		{
			"mimeType":"image/png",
			"name":"Sword_Normal",
			"uri":"Sword_Normal.png"
		},
		{
			"mimeType":"image/png",
			"name":"Sword_Color",
			"uri":"Sword_Color.png"
		}
	],
	"accessors":[
		{
			"bufferView":0,
			"componentType":5126,
			"count":120,
			"max":[
				10.410140991210938,
				17.112031936645508,
				-126.52864837646484
			],
			"min":[
				-10.410140991210938,
				1.394614815711975,
				-171.0148468017578
			],
			"type":"VEC3"
		},
		{
			"bufferView":1,
			"componentType":5126,
			"count":120,
			"type":"VEC3"
		},
		{
			"bufferView":2,
			"componentType":5126,
			"count":120,
			"type":"VEC2"
		},
		{
			"bufferView":3,
			"componentType":5123,
			"count":546,
			"type":"SCALAR"
		},
		{
			"bufferView":4,
			"componentType":5126,
			"count":6105,
			"max":[
				70.0047607421875,
				16.85102081298828,
				-0.106109619140625
			],
			"min":[
				-70.0047607421875,
				-16.815711975097656,
				-179.73538208007812
			],
			"type":"VEC3"
		},
		{
			"bufferView":5,
			"componentType":5126,
			"count":6105,
			"type":"VEC3"
		},
		{
			"bufferView":6,
			"componentType":5126,
			"count":6105,
			"type":"VEC2"
		},
		{
			"bufferView":7,
			"componentType":5123,
			"count":14520,
			"type":"SCALAR"
		},
		{
			"bufferView":8,
			"componentType":5126,
			"count":113,
			"max":[
				-38.751712799072266,
				8.697110176086426,
				-110.72589874267578
			],
			"min":[
				-62.062801361083984,
				-10.8994140625,
				-129.9998321533203
			],
			"type":"VEC3"
		},
		{
			"bufferView":9,
			"componentType":5126,
			"count":113,
			"type":"VEC3"
		},
		{
			"bufferView":10,
			"componentType":5126,
			"count":113,
			"type":"VEC2"
		},
		{
			"bufferView":11,
			"componentType":5123,
			"count":480,
			"type":"SCALAR"
		},
		{
			"bufferView":12,
			"componentType":5126,
			"count":18,
			"max":[
				4.666609764099121,
				10.957173347473145,
				-167.73606872558594
			],
			"min":[
				-4.666596412658691,
				9.630331993103027,
				-168.57766723632812
			],
			"type":"VEC3"
		},
		{
			"bufferView":13,
			"componentType":5126,
			"count":18,
			"type":"VEC3"
		},
		{
			"bufferView":14,
			"componentType":5126,
			"count":18,
			"type":"VEC2"
		},
		{
			"bufferView":15,
			"componentType":5123,
			"count":48,
			"type":"SCALAR"
		},
		{
			"bufferView":16,
			"componentType":5126,
			"count":242,
			"max":[
				15.462456703186035,
				12.390827178955078,
				-128.94586181640625
			],
			"min":[
				-15.462387084960938,
				-18.54974365234375,
				-180.89736938476562
			],
			"type":"VEC3"
		},
		{
			"bufferView":17,
			"componentType":5126,
			"count":242,
			"type":"VEC3"
		},
		{
			"bufferView":18,
			"componentType":5126,
			"count":242,
			"type":"VEC2"
		},
		{
			"bufferView":19,
			"componentType":5123,
			"count":1032,
			"type":"SCALAR"
		},
		{
			"bufferView":20,
			"componentType":5126,
			"count":1410,
			"max":[
				26.448654174804688,
				15.347091674804688,
				0.12209180742502213
			],
			"min":[
				-26.448654174804688,
				-14.299356460571289,
				-55.68268585205078
			],
			"type":"VEC3"
		},
		{
			"bufferView":21,
			"componentType":5126,
			"count":1410,
			"type":"VEC3"
		},
		{
			"bufferView":22,
			"componentType":5126,
			"count":1410,
			"type":"VEC2"
		},
		{
			"bufferView":23,
			"componentType":5123,
			"count":2568,
			"type":"SCALAR"
		},
		{
			"bufferView":24,
			"componentType":5126,
			"count":657,
			"max":[
				29.883956909179688,
				11.591121673583984,
				29.88397216796875
			],
			"min":[
				-29.883956909179688,
				-11.591121673583984,
				-29.88397216796875
			],
			"type":"VEC3"
		},
		{
			"bufferView":25,
			"componentType":5126,
			"count":657,
			"type":"VEC3"
		},
		{
			"bufferView":26,
			"componentType":5126,
			"count":657,
			"type":"VEC2"
		},
		{
			"bufferView":27,
			"componentType":5123,
			"count":1344,
			"type":"SCALAR"
		},
		{
			"bufferView":28,
			"componentType":5126,
			"count":576,
			"max":[
				18.025543212890625,
				13.492317199707031,
				-108.55330657958984
			],
			"min":[
				-33.63250732421875,
				-19.07657241821289,
				-155.91773986816406
			],
			"type":"VEC3"
		},
		{
			"bufferView":29,
			"componentType":5126,
			"count":576,
			"type":"VEC3"
		},
		{
			"bufferView":30,
			"componentType":5126,
			"count":576,
			"type":"VEC2"
		},
		{
			"bufferView":31,
			"componentType":5123,
			"count":2820,
			"type":"SCALAR"
		},
		{
			"bufferView":32,
			"componentType":5126,
			"count":144,
			"max":[
				21.192829132080078,
				12.971092224121094,
				-74.45903778076172
			],
			"min":[
				-21.192829132080078,
				-18.700054168701172,
				-106.747314453125
			],
			"type":"VEC3"
		},
		{
			"bufferView":33,
			"componentType":5126,
			"count":144,
			"type":"VEC3"
		},
		{
			"bufferView":34,
			"componentType":5126,
			"count":144,
			"type":"VEC2"
		},
		{
			"bufferView":35,
			"componentType":5123,
			"count":672,
			"type":"SCALAR"
		},
		{
			"bufferView":36,
			"componentType":5126,
			"count":214,
			"max":[
				8.600700378417969,
				3.4312944412231445,
				12.89935302734375
			],
			"min":[
				-8.600700378417969,
				-3.4312944412231445,
				-73.19381713867188
			],
			"type":"VEC3"
		},
		{
			"bufferView":37,
			"componentType":5126,
			"count":214,
			"type":"VEC3"
		},
		{
			"bufferView":38,
			"componentType":5126,
			"count":214,
			"type":"VEC2"
		},
		{
			"bufferView":39,
			"componentType":5123,
			"count":414,
			"type":"SCALAR"
		}
	],
	"bufferViews":[
		{
			"buffer":0,
			"byteLength":1440,
			"byteOffset":0,
			"target":34962
		},
		{
			"buffer":0,
			"byteLength":1440,
			"byteOffset":1440,
			"target":34962
		},
		{
			"buffer":0,
			"byteLength":960,
			"byteOffset":2880,
			"target":34962
		},
		{
			"buffer":0,
			"byteLength":1092,
			"byteOffset":3840,
			"target":34963
		},
		{
			"buffer":0,
			"byteLength":73260,
			"byteOffset":4932,
			"target":34962
		},
		{
			"buffer":0,
			"byteLength":73260,
			"byteOffset":78192,
			"target":34962
		},
		{
			"buffer":0,
			"byteLength":48840,
			"byteOffset":151452,
			"target":34962
		},
		{
			"buffer":0,
			"byteLength":29040,
			"byteOffset":200292,
			"target":34963
		},
		{
			"buffer":0,
			"byteLength":1356,
			"byteOffset":229332,
			"target":34962
		},
		{
			"buffer":0,
			"byteLength":1356,
			"byteOffset":230688,
			"target":34962
		},
		{
			"buffer":0,
			"byteLength":904,
			"byteOffset":232044,
			"target":34962
		},
		{
			"buffer":0,
			"byteLength":960,
			"byteOffset":232948,
			"target":34963
		},
		{
			"buffer":0,
			"byteLength":216,
			"byteOffset":233908,
			"target":34962
		},
		{
			"buffer":0,
			"byteLength":216,
			"byteOffset":234124,
			"target":34962
		},
		{
			"buffer":0,
			"byteLength":144,
			"byteOffset":234340,
			"target":34962
		},
		{
			"buffer":0,
			"byteLength":96,
			"byteOffset":234484,
			"target":34963
		},
		{
			"buffer":0,
			"byteLength":2904,
			"byteOffset":234580,
			"target":34962
		},
		{
			"buffer":0,
			"byteLength":2904,
			"byteOffset":237484,
			"target":34962
		},
		{
			"buffer":0,
			"byteLength":1936,
			"byteOffset":240388,
			"target":34962
		},
		{
			"buffer":0,
			"byteLength":2064,
			"byteOffset":242324,
			"target":34963
		},
		{
			"buffer":0,
			"byteLength":16920,
			"byteOffset":244388,
			"target":34962
		},
		{
			"buffer":0,
			"byteLength":16920,
			"byteOffset":261308,
			"target":34962
		},
		{
			"buffer":0,
			"byteLength":11280,
			"byteOffset":278228,
			"target":34962
		},
		{
			"buffer":0,
			"byteLength":5136,
			"byteOffset":289508,
			"target":34963
		},
		{
			"buffer":0,
			"byteLength":7884,
			"byteOffset":294644,
			"target":34962
		},
		{
			"buffer":0,
			"byteLength":7884,
			"byteOffset":302528,
			"target":34962
		},
		{
			"buffer":0,
			"byteLength":5256,
			"byteOffset":310412,
			"target":34962
		},
		{
			"buffer":0,
			"byteLength":2688,
			"byteOffset":315668,
			"target":34963
		},
		{
			"buffer":0,
			"byteLength":6912,
			"byteOffset":318356,
			"target":34962
		},
		{
			"buffer":0,
			"byteLength":6912,
			"byteOffset":325268,
			"target":34962
		},
		{
			"buffer":0,
			"byteLength":4608,
			"byteOffset":332180,
			"target":34962
		},
		{
			"buffer":0,
			"byteLength":5640,
			"byteOffset":336788,
			"target":34963
		},
		{
			"buffer":0,
			"byteLength":1728,
			"byteOffset":342428,
			"target":34962
		},
		{
			"buffer":0,
			"byteLength":1728,
			"byteOffset":344156,
			"target":34962
		},
		{
			"buffer":0,
			"byteLength":1152,
			"byteOffset":345884,
			"target":34962
		},
		{
			"buffer":0,
			"byteLength":1344,
			"byteOffset":347036,
			"target":34963
		},
		{
			"buffer":0,
			"byteLength":2568,
			"byteOffset":348380,
			"target":34962
		},
		{
			"buffer":0,
			"byteLength":2568,
			"byteOffset":350948,
			"target":34962
		},
		{
			"buffer":0,
			"byteLength":1712,
			"byteOffset":353516,
			"target":34962
		},
		{
			"buffer":0,
			"byteLength":828,
			"byteOffset":355228,
			"target":34963
		}
	],
	"samplers":[
		{
			"magFilter":9729,
			"minFilter":9987
		}
	],
	"buffers":[
		{
			"byteLength":356056,
			"uri":"test2.bin"
		}
	]
}
