{
	"asset":{
		"generator":"Khronos glTF Blender I/O v4.2.69",
		"version":"2.0"
	},
	"extensionsUsed":[
		"KHR_materials_specular"
	],
	"scene":0,
	"scenes":[
		{
			"name":"Scene",
			"nodes":[
				1
			]
		}
	],
	"nodes":[
		{
			"mesh":0,
			"name":"baseMesh"
		},
		{
			"children":[
				0
			],
			"name":"Robo_Owl",
			"rotation":[
				0.7071068286895752,
				0,
				0,
				0.7071068286895752
			],
			"scale":[
				0.009999999776482582,
				0.009999999776482582,
				0.009999999776482582
			]
		}
	],
	"materials":[
		{
			"alphaMode":"BLEND",
			"doubleSided":true,
			"extensions":{
				"KHR_materials_specular":{
					"specularColorFactor":[
						2.0,
						2.0,
						2.0
					]
				}
			},
			"name":"robo_owl_mat",
			"pbrMetallicRoughness":{
				"baseColorTexture":{
					"index":0
				},
				"metallicFactor":0.5,
				"roughnessFactor":0.7487671971321106
			}
		}
	],
	"meshes":[
		{
			"name":"Mesh.013",
			"primitives":[
				{
					"attributes":{
						"POSITION":0,
						"NORMAL":1,
						"TEXCOORD_0":2
					},
					"indices":3,
					"material":0
				}
			]
		}
	],
	"textures":[
		{
			"sampler":0,
			"source":0
		}
	],
	"images":[
		{
			"mimeType":"image/png",
			"name":"robo_owl_color",
			"uri":"robo_owl_color.png"
		}
	],
	"accessors":[
		{
			"bufferView":0,
			"componentType":5126,
			"count":4552,
			"max":[
				97.3797378540039,
				24.482725143432617,
				-32.75929260253906
			],
			"min":[
				-97.3797378540039,
				-34.94233703613281,
				-107.14860534667969
			],
			"type":"VEC3"
		},
		{
			"bufferView":1,
			"componentType":5126,
			"count":4552,
			"type":"VEC3"
		},
		{
			"bufferView":2,
			"componentType":5126,
			"count":4552,
			"type":"VEC2"
		},
		{
			"bufferView":3,
			"componentType":5123,
			"count":8256,
			"type":"SCALAR"
		}
	],
	"bufferViews":[
		{
			"buffer":0,
			"byteLength":54624,
			"byteOffset":0,
			"target":34962
		},
		{
			"buffer":0,
			"byteLength":54624,
			"byteOffset":54624,
			"target":34962
		},
		{
			"buffer":0,
			"byteLength":36416,
			"byteOffset":109248,
			"target":34962
		},
		{
			"buffer":0,
			"byteLength":16512,
			"byteOffset":145664,
			"target":34963
		}
	],
	"samplers":[
		{
			"magFilter":9729,
			"minFilter":9987
		}
	],
	"buffers":[
		{
			"byteLength":162176,
			"uri":"test.bin"
		}
	]
}
