{
	"asset":{
		"generator":"Khronos glTF Blender I/O v4.2.69",
		"version":"2.0"
	},
	"extensionsUsed":[
		"KHR_materials_specular"
	],
	"scene":0,
	"scenes":[
		{
			"name":"Scene",
			"nodes":[
				14
			]
		}
	],
	"nodes":[
		{
			"mesh":0,
			"name":"Beak_Bottom"
		},
		{
			"mesh":1,
			"name":"Beak_Top"
		},
		{
			"mesh":2,
			"name":"Body"
		},
		{
			"mesh":3,
			"name":"Brow_Left"
		},
		{
			"mesh":4,
			"name":"Brow_Right"
		},
		{
			"mesh":5,
			"name":"Gear_L"
		},
		{
			"mesh":6,
			"name":"Gear_R"
		},
		{
			"mesh":7,
			"name":"Leg_Lower_L"
		},
		{
			"mesh":8,
			"name":"Leg_Lower_R"
		},
		{
			"mesh":9,
			"name":"Leg_Upper_L"
		},
		{
			"mesh":10,
			"name":"Leg_Upper_R"
		},
		{
			"mesh":11,
			"name":"Tongue"
		},
		{
			"mesh":12,
			"name":"wing_L"
		},
		{
			"mesh":13,
			"name":"wing_R"
		},
		{
			"children":[
				0,
				1,
				2,
				3,
				4,
				5,
				6,
				7,
				8,
				9,
				10,
				11,
				12,
				13
			],
			"name":"Robo_Owl",
			"rotation":[
				0.7071068286895752,
				0,
				0,
				0.7071068286895752
			],
			"scale":[
				0.009999999776482582,
				0.009999999776482582,
				0.009999999776482582
			]
		}
	],
	"materials":[
		{
			"alphaMode":"BLEND",
			"doubleSided":true,
			"extensions":{
				"KHR_materials_specular":{
					"specularColorFactor":[
						2.0,
						2.0,
						2.0
					]
				}
			},
			"name":"robo_owl_mat",
			"pbrMetallicRoughness":{
				"baseColorTexture":{
					"index":0
				},
				"metallicFactor":0.5,
				"roughnessFactor":0.7487671971321106
			}
		}
	],
	"meshes":[
		{
			"name":"Mesh.004",
			"primitives":[
				{
					"attributes":{
						"POSITION":0,
						"NORMAL":1,
						"TEXCOORD_0":2
					},
					"indices":3,
					"material":0
				}
			]
		},
		{
			"name":"Mesh.003",
			"primitives":[
				{
					"attributes":{
						"POSITION":4,
						"NORMAL":5,
						"TEXCOORD_0":6
					},
					"indices":7,
					"material":0
				}
			]
		},
		{
			"name":"Mesh",
			"primitives":[
				{
					"attributes":{
						"POSITION":8,
						"NORMAL":9,
						"TEXCOORD_0":10
					},
					"indices":11,
					"material":0
				}
			]
		},
		{
			"name":"Mesh.001",
			"primitives":[
				{
					"attributes":{
						"POSITION":12,
						"NORMAL":13,
						"TEXCOORD_0":14
					},
					"indices":15,
					"material":0
				}
			]
		},
		{
			"name":"Mesh.002",
			"primitives":[
				{
					"attributes":{
						"POSITION":16,
						"NORMAL":17,
						"TEXCOORD_0":18
					},
					"indices":19,
					"material":0
				}
			]
		},
		{
			"name":"Mesh.007",
			"primitives":[
				{
					"attributes":{
						"POSITION":20,
						"NORMAL":21,
						"TEXCOORD_0":22
					},
					"indices":23,
					"material":0
				}
			]
		},
		{
			"name":"Mesh.006",
			"primitives":[
				{
					"attributes":{
						"POSITION":24,
						"NORMAL":25,
						"TEXCOORD_0":26
					},
					"indices":27,
					"material":0
				}
			]
		},
		{
			"name":"Mesh.012",
			"primitives":[
				{
					"attributes":{
						"POSITION":28,
						"NORMAL":29,
						"TEXCOORD_0":30
					},
					"indices":31,
					"material":0
				}
			]
		},
		{
			"name":"Mesh.010",
			"primitives":[
				{
					"attributes":{
						"POSITION":32,
						"NORMAL":33,
						"TEXCOORD_0":34
					},
					"indices":35,
					"material":0
				}
			]
		},
		{
			"name":"Mesh.013",
			"primitives":[
				{
					"attributes":{
						"POSITION":36,
						"NORMAL":37,
						"TEXCOORD_0":38
					},
					"indices":39,
					"material":0
				}
			]
		},
		{
			"name":"Mesh.011",
			"primitives":[
				{
					"attributes":{
						"POSITION":40,
						"NORMAL":41,
						"TEXCOORD_0":42
					},
					"indices":43,
					"material":0
				}
			]
		},
		{
			"name":"Mesh.005",
			"primitives":[
				{
					"attributes":{
						"POSITION":44,
						"NORMAL":45,
						"TEXCOORD_0":46
					},
					"indices":47,
					"material":0
				}
			]
		},
		{
			"name":"Mesh.009",
			"primitives":[
				{
					"attributes":{
						"POSITION":48,
						"NORMAL":49,
						"TEXCOORD_0":50
					},
					"indices":51,
					"material":0
				}
			]
		},
		{
			"name":"Mesh.008",
			"primitives":[
				{
					"attributes":{
						"POSITION":52,
						"NORMAL":53,
						"TEXCOORD_0":54
					},
					"indices":55,
					"material":0
				}
			]
		}
	],
	"textures":[
		{
			"sampler":0,
			"source":0
		}
	],
	"images":[
		{
			"mimeType":"image/png",
			"name":"robo_owl_color",
			"uri":"robo_owl_color.png"
		}
	],
	"accessors":[
		{
			"bufferView":0,
			"componentType":5126,
			"count":35,
			"max":[
				2.4567959308624268,
				18.543874740600586,
				-61.54283142089844
			],
			"min":[
				-2.4567949771881104,
				13.002150535583496,
				-63.89564895629883
			],
			"type":"VEC3"
		},
		{
			"bufferView":1,
			"componentType":5126,
			"count":35,
			"type":"VEC3"
		},
		{
			"bufferView":2,
			"componentType":5126,
			"count":35,
			"type":"VEC2"
		},
		{
			"bufferView":3,
			"componentType":5123,
			"count":60,
			"type":"SCALAR"
		},
		{
			"bufferView":4,
			"componentType":5126,
			"count":40,
			"max":[
				2.7782950401306152,
				21.495098114013672,
				-69.78789520263672
			],
			"min":[
				-2.7782950401306152,
				13.794123649597168,
				-74.23054504394531
			],
			"type":"VEC3"
		},
		{
			"bufferView":5,
			"componentType":5126,
			"count":40,
			"type":"VEC3"
		},
		{
			"bufferView":6,
			"componentType":5126,
			"count":40,
			"type":"VEC2"
		},
		{
			"bufferView":7,
			"componentType":5123,
			"count":60,
			"type":"SCALAR"
		},
		{
			"bufferView":8,
			"componentType":5126,
			"count":1174,
			"max":[
				15.164711952209473,
				20.17626953125,
				-48.07576370239258
			],
			"min":[
				-15.164711952209473,
				-34.94233703613281,
				-102.65846252441406
			],
			"type":"VEC3"
		},
		{
			"bufferView":9,
			"componentType":5126,
			"count":1174,
			"type":"VEC3"
		},
		{
			"bufferView":10,
			"componentType":5126,
			"count":1174,
			"type":"VEC2"
		},
		{
			"bufferView":11,
			"componentType":5123,
			"count":2436,
			"type":"SCALAR"
		},
		{
			"bufferView":12,
			"componentType":5126,
			"count":24,
			"max":[
				14.638030052185059,
				19.082944869995117,
				-75.61317443847656
			],
			"min":[
				1.564723014831543,
				16.80727195739746,
				-84.56744384765625
			],
			"type":"VEC3"
		},
		{
			"bufferView":13,
			"componentType":5126,
			"count":24,
			"type":"VEC3"
		},
		{
			"bufferView":14,
			"componentType":5126,
			"count":24,
			"type":"VEC2"
		},
		{
			"bufferView":15,
			"componentType":5123,
			"count":36,
			"type":"SCALAR"
		},
		{
			"bufferView":16,
			"componentType":5126,
			"count":24,
			"max":[
				-1.0964640378952026,
				19.082944869995117,
				-76.06385803222656
			],
			"min":[
				-13.958745002746582,
				16.80727195739746,
				-89.22628021240234
			],
			"type":"VEC3"
		},
		{
			"bufferView":17,
			"componentType":5126,
			"count":24,
			"type":"VEC3"
		},
		{
			"bufferView":18,
			"componentType":5126,
			"count":24,
			"type":"VEC2"
		},
		{
			"bufferView":19,
			"componentType":5123,
			"count":36,
			"type":"SCALAR"
		},
		{
			"bufferView":20,
			"componentType":5126,
			"count":437,
			"max":[
				23.547931671142578,
				18.06993293762207,
				-58.429466247558594
			],
			"min":[
				13.920581817626953,
				-19.001779556274414,
				-93.76451110839844
			],
			"type":"VEC3"
		},
		{
			"bufferView":21,
			"componentType":5126,
			"count":437,
			"type":"VEC3"
		},
		{
			"bufferView":22,
			"componentType":5126,
			"count":437,
			"type":"VEC2"
		},
		{
			"bufferView":23,
			"componentType":5123,
			"count":762,
			"type":"SCALAR"
		},
		{
			"bufferView":24,
			"componentType":5126,
			"count":435,
			"max":[
				-13.920581817626953,
				18.06993293762207,
				-58.429466247558594
			],
			"min":[
				-23.547931671142578,
				-19.001779556274414,
				-93.76451110839844
			],
			"type":"VEC3"
		},
		{
			"bufferView":25,
			"componentType":5126,
			"count":435,
			"type":"VEC3"
		},
		{
			"bufferView":26,
			"componentType":5126,
			"count":435,
			"type":"VEC2"
		},
		{
			"bufferView":27,
			"componentType":5123,
			"count":762,
			"type":"SCALAR"
		},
		{
			"bufferView":28,
			"componentType":5126,
			"count":198,
			"max":[
				23.30350685119629,
				18.44623374938965,
				-32.75929260253906
			],
			"min":[
				5.9792561531066895,
				-7.142334938049316,
				-52.41938018798828
			],
			"type":"VEC3"
		},
		{
			"bufferView":29,
			"componentType":5126,
			"count":198,
			"type":"VEC3"
		},
		{
			"bufferView":30,
			"componentType":5126,
			"count":198,
			"type":"VEC2"
		},
		{
			"bufferView":31,
			"componentType":5123,
			"count":372,
			"type":"SCALAR"
		},
		{
			"bufferView":32,
			"componentType":5126,
			"count":198,
			"max":[
				-5.496504783630371,
				24.482725143432617,
				-33.91925048828125
			],
			"min":[
				-17.991910934448242,
				-0.3373439908027649,
				-59.072330474853516
			],
			"type":"VEC3"
		},
		{
			"bufferView":33,
			"componentType":5126,
			"count":198,
			"type":"VEC3"
		},
		{
			"bufferView":34,
			"componentType":5126,
			"count":198,
			"type":"VEC2"
		},
		{
			"bufferView":35,
			"componentType":5123,
			"count":372,
			"type":"SCALAR"
		},
		{
			"bufferView":36,
			"componentType":5126,
			"count":40,
			"max":[
				11.033473014831543,
				-1.3470619916915894,
				-45.17714309692383
			],
			"min":[
				2.181828022003174,
				-10.001619338989258,
				-60.040000915527344
			],
			"type":"VEC3"
		},
		{
			"bufferView":37,
			"componentType":5126,
			"count":40,
			"type":"VEC3"
		},
		{
			"bufferView":38,
			"componentType":5126,
			"count":40,
			"type":"VEC2"
		},
		{
			"bufferView":39,
			"componentType":5123,
			"count":60,
			"type":"SCALAR"
		},
		{
			"bufferView":40,
			"componentType":5126,
			"count":40,
			"max":[
				-1.7737339735031128,
				4.56744384765625,
				-44.31049346923828
			],
			"min":[
				-10.08285903930664,
				-3.1555309295654297,
				-58.88035583496094
			],
			"type":"VEC3"
		},
		{
			"bufferView":41,
			"componentType":5126,
			"count":40,
			"type":"VEC3"
		},
		{
			"bufferView":42,
			"componentType":5126,
			"count":40,
			"type":"VEC2"
		},
		{
			"bufferView":43,
			"componentType":5123,
			"count":60,
			"type":"SCALAR"
		},
		{
			"bufferView":44,
			"componentType":5126,
			"count":40,
			"max":[
				2.250559091567993,
				20.452247619628906,
				-63.2612419128418
			],
			"min":[
				-2.250559091567993,
				11.704387664794922,
				-67.062255859375
			],
			"type":"VEC3"
		},
		{
			"bufferView":45,
			"componentType":5126,
			"count":40,
			"type":"VEC3"
		},
		{
			"bufferView":46,
			"componentType":5126,
			"count":40,
			"type":"VEC2"
		},
		{
			"bufferView":47,
			"componentType":5123,
			"count":60,
			"type":"SCALAR"
		},
		{
			"bufferView":48,
			"componentType":5126,
			"count":893,
			"max":[
				97.3797378540039,
				4.165987491607666,
				-63.924598693847656
			],
			"min":[
				21.491168975830078,
				-4.607363224029541,
				-107.14860534667969
			],
			"type":"VEC3"
		},
		{
			"bufferView":49,
			"componentType":5126,
			"count":893,
			"type":"VEC3"
		},
		{
			"bufferView":50,
			"componentType":5126,
			"count":893,
			"type":"VEC2"
		},
		{
			"bufferView":51,
			"componentType":5123,
			"count":1590,
			"type":"SCALAR"
		},
		{
			"bufferView":52,
			"componentType":5126,
			"count":843,
			"max":[
				-21.491168975830078,
				4.165987491607666,
				-63.924598693847656
			],
			"min":[
				-97.3797378540039,
				-4.607363700866699,
				-107.14860534667969
			],
			"type":"VEC3"
		},
		{
			"bufferView":53,
			"componentType":5126,
			"count":843,
			"type":"VEC3"
		},
		{
			"bufferView":54,
			"componentType":5126,
			"count":843,
			"type":"VEC2"
		},
		{
			"bufferView":55,
			"componentType":5123,
			"count":1590,
			"type":"SCALAR"
		}
	],
	"bufferViews":[
		{
			"buffer":0,
			"byteLength":420,
			"byteOffset":0,
			"target":34962
		},
		{
			"buffer":0,
			"byteLength":420,
			"byteOffset":420,
			"target":34962
		},
		{
			"buffer":0,
			"byteLength":280,
			"byteOffset":840,
			"target":34962
		},
		{
			"buffer":0,
			"byteLength":120,
			"byteOffset":1120,
			"target":34963
		},
		{
			"buffer":0,
			"byteLength":480,
			"byteOffset":1240,
			"target":34962
		},
		{
			"buffer":0,
			"byteLength":480,
			"byteOffset":1720,
			"target":34962
		},
		{
			"buffer":0,
			"byteLength":320,
			"byteOffset":2200,
			"target":34962
		},
		{
			"buffer":0,
			"byteLength":120,
			"byteOffset":2520,
			"target":34963
		},
		{
			"buffer":0,
			"byteLength":14088,
			"byteOffset":2640,
			"target":34962
		},
		{
			"buffer":0,
			"byteLength":14088,
			"byteOffset":16728,
			"target":34962
		},
		{
			"buffer":0,
			"byteLength":9392,
			"byteOffset":30816,
			"target":34962
		},
		{
			"buffer":0,
			"byteLength":4872,
			"byteOffset":40208,
			"target":34963
		},
		{
			"buffer":0,
			"byteLength":288,
			"byteOffset":45080,
			"target":34962
		},
		{
			"buffer":0,
			"byteLength":288,
			"byteOffset":45368,
			"target":34962
		},
		{
			"buffer":0,
			"byteLength":192,
			"byteOffset":45656,
			"target":34962
		},
		{
			"buffer":0,
			"byteLength":72,
			"byteOffset":45848,
			"target":34963
		},
		{
			"buffer":0,
			"byteLength":288,
			"byteOffset":45920,
			"target":34962
		},
		{
			"buffer":0,
			"byteLength":288,
			"byteOffset":46208,
			"target":34962
		},
		{
			"buffer":0,
			"byteLength":192,
			"byteOffset":46496,
			"target":34962
		},
		{
			"buffer":0,
			"byteLength":72,
			"byteOffset":46688,
			"target":34963
		},
		{
			"buffer":0,
			"byteLength":5244,
			"byteOffset":46760,
			"target":34962
		},
		{
			"buffer":0,
			"byteLength":5244,
			"byteOffset":52004,
			"target":34962
		},
		{
			"buffer":0,
			"byteLength":3496,
			"byteOffset":57248,
			"target":34962
		},
		{
			"buffer":0,
			"byteLength":1524,
			"byteOffset":60744,
			"target":34963
		},
		{
			"buffer":0,
			"byteLength":5220,
			"byteOffset":62268,
			"target":34962
		},
		{
			"buffer":0,
			"byteLength":5220,
			"byteOffset":67488,
			"target":34962
		},
		{
			"buffer":0,
			"byteLength":3480,
			"byteOffset":72708,
			"target":34962
		},
		{
			"buffer":0,
			"byteLength":1524,
			"byteOffset":76188,
			"target":34963
		},
		{
			"buffer":0,
			"byteLength":2376,
			"byteOffset":77712,
			"target":34962
		},
		{
			"buffer":0,
			"byteLength":2376,
			"byteOffset":80088,
			"target":34962
		},
		{
			"buffer":0,
			"byteLength":1584,
			"byteOffset":82464,
			"target":34962
		},
		{
			"buffer":0,
			"byteLength":744,
			"byteOffset":84048,
			"target":34963
		},
		{
			"buffer":0,
			"byteLength":2376,
			"byteOffset":84792,
			"target":34962
		},
		{
			"buffer":0,
			"byteLength":2376,
			"byteOffset":87168,
			"target":34962
		},
		{
			"buffer":0,
			"byteLength":1584,
			"byteOffset":89544,
			"target":34962
		},
		{
			"buffer":0,
			"byteLength":744,
			"byteOffset":91128,
			"target":34963
		},
		{
			"buffer":0,
			"byteLength":480,
			"byteOffset":91872,
			"target":34962
		},
		{
			"buffer":0,
			"byteLength":480,
			"byteOffset":92352,
			"target":34962
		},
		{
			"buffer":0,
			"byteLength":320,
			"byteOffset":92832,
			"target":34962
		},
		{
			"buffer":0,
			"byteLength":120,
			"byteOffset":93152,
			"target":34963
		},
		{
			"buffer":0,
			"byteLength":480,
			"byteOffset":93272,
			"target":34962
		},
		{
			"buffer":0,
			"byteLength":480,
			"byteOffset":93752,
			"target":34962
		},
		{
			"buffer":0,
			"byteLength":320,
			"byteOffset":94232,
			"target":34962
		},
		{
			"buffer":0,
			"byteLength":120,
			"byteOffset":94552,
			"target":34963
		},
		{
			"buffer":0,
			"byteLength":480,
			"byteOffset":94672,
			"target":34962
		},
		{
			"buffer":0,
			"byteLength":480,
			"byteOffset":95152,
			"target":34962
		},
		{
			"buffer":0,
			"byteLength":320,
			"byteOffset":95632,
			"target":34962
		},
		{
			"buffer":0,
			"byteLength":120,
			"byteOffset":95952,
			"target":34963
		},
		{
			"buffer":0,
			"byteLength":10716,
			"byteOffset":96072,
			"target":34962
		},
		{
			"buffer":0,
			"byteLength":10716,
			"byteOffset":106788,
			"target":34962
		},
		{
			"buffer":0,
			"byteLength":7144,
			"byteOffset":117504,
			"target":34962
		},
		{
			"buffer":0,
			"byteLength":3180,
			"byteOffset":124648,
			"target":34963
		},
		{
			"buffer":0,
			"byteLength":10116,
			"byteOffset":127828,
			"target":34962
		},
		{
			"buffer":0,
			"byteLength":10116,
			"byteOffset":137944,
			"target":34962
		},
		{
			"buffer":0,
			"byteLength":6744,
			"byteOffset":148060,
			"target":34962
		},
		{
			"buffer":0,
			"byteLength":3180,
			"byteOffset":154804,
			"target":34963
		}
	],
	"samplers":[
		{
			"magFilter":9729,
			"minFilter":9987
		}
	],
	"buffers":[
		{
			"byteLength":157984,
			"uri":"test.bin"
		}
	]
}
